<?xml version="1.0" encoding="UTF-8"?>
<svg version="1.1" xmlns="http://www.w3.org/2000/svg" width="512" height="512">
<path d="M0 0 C8.05996423 6.07080639 13.66954844 14.77171449 15.625 24.75 C15.85075589 27.98583435 16.00424949 31.22050161 16.1484375 34.4609375 C17.12516329 41.20194664 20.48589094 44.99445276 25.5 49.3125 C26.54004887 50.22935106 27.57912062 51.14731177 28.6171875 52.06640625 C29.12604492 52.50871582 29.63490234 52.95102539 30.15917969 53.40673828 C31.56597099 54.69590646 32.85402163 56.11111274 34.1328125 57.52734375 C37.25056465 60.30790954 38.43217421 60.90619374 42.625 60.75 C46.34289937 59.38242501 49.80075606 57.57403719 53.3125 55.75 C98.89160533 33.10961009 151.60454192 26.33193855 200.625 41.75 C201.38167969 41.9867041 202.13835937 42.2234082 202.91796875 42.46728516 C214.19063965 46.09166895 224.4890072 51.01637593 234.79785156 56.83813477 C241.78089651 60.7885417 241.78089651 60.7885417 249.625 60.75 C252.24613264 58.64621797 252.24613264 58.64621797 254.625 55.75 C255.7707618 54.70534471 256.9319874 53.67748062 258.10546875 52.6640625 C258.71197266 52.12523437 259.31847656 51.58640625 259.94335938 51.03125 C261.19218133 49.92466586 262.45011687 48.82828441 263.71679688 47.7421875 C268.58809707 43.36583225 270.22910267 39.6637279 270.8984375 33.046875 C270.94871094 31.78617188 270.94871094 31.78617188 271 30.5 C272.07180139 17.25689475 278.39280065 7.98691211 288.25 -0.48828125 C298.73551749 -8.26618978 311.09791436 -8.23407018 323.625 -7.25 C333.89461177 -5.06954337 341.96063069 0.7664978 348.625 8.75 C355.68145357 19.78792863 357.45074141 32.43456938 354.9375 45.2578125 C353.01696421 52.15573688 350.44556669 57.46129429 345.625 62.75 C344.8825 63.61625 344.14 64.4825 343.375 65.375 C335.60814308 72.08274007 327.34388042 75.37862531 317.31640625 77.16015625 C307.07519099 79.04045067 297.97849246 84.44530808 291.625 92.75 C289.76053587 96.22354978 289.76053587 96.22354978 289.625 99.75 C291.58068069 104.36900901 294.33001723 108.25431838 297.3125 112.25 C327.35400679 153.59957305 334.74331652 205.73677056 327.17285156 255.49414062 C320.73319892 293.76473229 305.97442361 331.57225004 282.625 362.75 C281.97047852 363.63558594 281.97047852 363.63558594 281.30273438 364.5390625 C252.53059674 403.24291579 212.4725603 431.74141286 164.3984375 439.859375 C132.9697438 444.47405939 102.66635689 437.88009288 74.625 423.75 C73.56152344 423.22921875 72.49804688 422.7084375 71.40234375 422.171875 C57.84672286 415.2512854 45.66918228 406.18061659 34.625 395.75 C33.35753971 394.68347854 32.08676736 393.62087909 30.8125 392.5625 C-11.53561635 355.41203978 -37.97582803 294.23506911 -42.12890625 238.79296875 C-44.78402174 191.43854636 -36.15107383 145.25698901 -6.41015625 107.23828125 C-3.42645314 103.33929123 -3.42645314 103.33929123 -2.17578125 98.703125 C-3.17142584 92.51333454 -7.56363367 88.38946016 -12.375 84.75 C-20.71105615 79.52035373 -28.21425735 77.15800466 -37.90234375 75.46484375 C-47.98550041 73.38923332 -54.93762034 67.61663802 -61.375 59.75 C-68.48251703 48.56439943 -70.14170718 36.0352508 -67.6875 23.13671875 C-64.52366352 11.91828191 -59.26650003 4.02385092 -49.375 -2.25 C-33.91749633 -10.51913611 -14.64464199 -9.49511654 0 0 Z M-46.3125 17.5625 C-51.30574171 25.27932809 -52.82098056 32.85749265 -50.90625 41.984375 C-48.56143245 49.18631461 -43.95539062 54.22545473 -37.35986328 57.85742188 C-33.93094909 59.39937886 -30.36962082 59.96802736 -26.6875 60.625 C-11.27192682 63.73831966 0.97982212 70.90239038 9.9609375 83.98046875 C14.12892173 90.91732513 16.0188618 98.01638408 14.07421875 106.015625 C12.02431148 112.0390492 8.63189502 116.52018523 4.68652344 121.45556641 C-21.85656593 155.07359559 -28.84596577 200.27348252 -24.60083008 241.91381836 C-19.4383787 285.48749457 -2.23128129 329.33122659 26.625 362.75 C27.28371094 363.51828125 27.94242187 364.2865625 28.62109375 365.078125 C57.45335558 397.87812929 93.44525503 420.08180838 137.4375 424.5625 C172.77585323 426.4434769 209.57978318 410.98782791 235.9296875 387.90625 C238.68126976 385.43052486 241.36090203 382.8861349 244.01611328 380.30761719 C245.62028218 378.75456748 247.24442668 377.22474114 248.87109375 375.6953125 C288.17626562 338.19442845 311.51242691 280.51165148 312.828125 226.54296875 C313.17632381 197.28545338 309.03042036 169.04927755 295.625 142.75 C295.28098145 142.0688916 294.93696289 141.3877832 294.58251953 140.68603516 C290.05813428 131.86717513 284.80082892 123.89666012 278.61035156 116.15185547 C274.18663068 110.54274069 272.1025192 105.44575309 272.3203125 98.234375 C273.64178725 87.45927316 279.37876548 78.9628853 287.71875 72.265625 C296.31238335 65.96074827 304.07513708 62.09396791 314.625 60.375 C322.60143498 59.03745714 328.2665843 56.86584562 333.4609375 50.5 C338.44684506 43.38396292 339.42627463 37.39231923 338.625 28.75 C336.9127234 21.53987144 333.84278456 16.77561693 327.625 12.75 C321.11423185 8.76381542 314.0904573 8.87806116 306.625 9.75 C299.76753367 11.81550191 294.44369517 15.66072933 290.625 21.75 C288.03061073 26.85597889 287.97587239 32.27633215 287.58984375 37.89257812 C286.559231 49.41405084 280.4731482 55.55928302 272.4375 63.5 C271.0752832 64.89798828 271.0752832 64.89798828 269.68554688 66.32421875 C263.35494501 72.64122591 257.96537627 76.96735865 249 78.28125 C239.8794636 78.19680059 234.3985777 76.6002736 226.66796875 71.984375 C202.14507115 57.48189307 174.98846594 50.31229956 146.5 50.4375 C145.48836792 50.44073273 145.48836792 50.44073273 144.45629883 50.44403076 C132.93961264 50.50273396 121.8822535 51.2861398 110.625 53.75 C109.74537598 53.93804199 108.86575195 54.12608398 107.95947266 54.31982422 C90.32615292 58.20775316 73.3265923 64.3439156 57.17578125 72.4296875 C56.32918945 72.85145264 55.48259766 73.27321777 54.61035156 73.70776367 C53.05683354 74.4962633 51.51436362 75.30715734 49.98730469 76.14575195 C44.31582362 79.06358317 39.82658739 79.11988867 33.625 77.75 C24.82270795 74.65078029 18.36099929 66.87047805 12.08666992 60.27441406 C10.70423328 58.83263448 9.29043242 57.4211195 7.875 56.01171875 C1.24075513 49.34292052 0.3085401 42.70439376 -0.7265625 33.6875 C-1.77284961 25.64545003 -3.88217456 19.29160342 -10.44140625 14.12109375 C-21.68786558 6.85128303 -36.90399122 7.40242395 -46.3125 17.5625 Z " fill="#B000FE" transform="translate(112.375,39.25)"/>
<path d="M0 0 C21.03592052 16.86896905 34.94148878 41.80269466 38.5625 68.625 C39.18851123 78.53725197 39.24676128 88.27264444 35.5625 97.625 C35.06943359 98.91470703 35.06943359 98.91470703 34.56640625 100.23046875 C30.83326893 108.7688901 24.87206756 114.51448105 16.25 118.0625 C-5.48201816 125.86642923 -29.98969716 119.22714311 -50.1171875 109.94921875 C-59.72166141 105.31389294 -67.02773138 99.22644584 -74.4375 91.625 C-75.19804687 90.87347656 -75.95859375 90.12195313 -76.7421875 89.34765625 C-91.63234206 73.79121073 -98.85044676 51.22188143 -98.73828125 30.03662109 C-98.42116185 17.32069928 -94.96973335 5.57071971 -86.4375 -4.125 C-62.54503159 -26.15916531 -23.73358598 -17.14766762 0 0 Z M-75.4375 9.625 C-82.09891114 19.55427321 -83.08725095 32.19164148 -81.06689453 43.74414062 C-77.41636129 59.71379903 -68.91654632 72.24798964 -57.4375 83.625 C-56.80457031 84.29144531 -56.17164063 84.95789063 -55.51953125 85.64453125 C-42.43166943 98.4434778 -21.62896869 103.96087825 -3.8125 104.1875 C-3.00780273 104.20232422 -2.20310547 104.21714844 -1.37402344 104.23242188 C4.48550705 104.1301783 9.57650331 102.7869903 14.5625 99.625 C20.95857348 92.35755001 22.0546423 83.59925711 21.87109375 74.23828125 C20.06277233 53.06489749 9.32517043 30.31234711 -6.8984375 16.53515625 C-24.74524085 2.90145457 -56.52231332 -9.91035673 -75.4375 9.625 Z " fill="#9D00FE" transform="translate(205.4375,229.375)"/>
<path d="M0 0 C1.18643138 0.99779376 2.3556522 2.01670847 3.5 3.0625 C4.36625 3.825625 5.2325 4.58875 6.125 5.375 C18.20022292 19.03906804 20.290675 33.83920602 19.67041016 51.44189453 C18.21426019 73.83489416 3.29721879 93.85197158 -12.66210938 108.47021484 C-27.84681988 121.62572519 -49.4528795 130.14606021 -69.5 131.0625 C-70.24894531 131.1140625 -70.99789062 131.165625 -71.76953125 131.21875 C-84.93924662 131.72936901 -97.8353841 128.22342643 -107.609375 119.23828125 C-117.25873035 108.13354792 -118.35552158 94.10961238 -117.5 80.0625 C-114.61920531 54.240104 -102.34956447 29.03652981 -82.5 12.0625 C-60.7725337 -4.14645646 -24.63393843 -17.58917744 0 0 Z M-77.5 31.0625 C-91.44919636 45.53385879 -100.06825641 67.15446356 -100.8125 87.125 C-100.63105312 94.73367243 -98.51279567 102.23681855 -93.5 108.0625 C-84.94672771 114.55240557 -76.86256403 115.07911817 -66.29492188 113.79443359 C-45.59985881 110.70241973 -25.05587056 100.60414229 -12.31933594 83.47460938 C-0.83966328 67.15500974 5.27657083 50.68465559 1.91796875 30.578125 C-0.19453042 22.97698644 -3.9173291 18.35779626 -10.5 14.0625 C-33.43139452 1.37626077 -60.1527109 15.0456045 -77.5 31.0625 Z " fill="#C200FE" transform="translate(385.5,219.9375)"/>
<path d="M0 0 C3.97145876 1.14837362 6.68656027 3.9571851 9.76953125 6.6171875 C17.57871825 12.98655565 27.85394115 15.11036566 37.76953125 14.53125 C48.50201583 13.19925833 56.11869585 8.82051576 64.2421875 2 C67.49690298 -0.15726806 70.503048 -0.01523369 74.26953125 0.65625 C76.76953125 2.15625 76.76953125 2.15625 78.26953125 4.65625 C79.01286536 8.7107997 79.10142551 10.99888538 77.2578125 14.671875 C68.84533654 25.88850962 52.45796169 30.36758528 39.26953125 32.65625 C25.06400136 34.65585538 9.03860373 28.27626129 -2.73046875 20.65625 C-6.38797953 17.77491326 -9.10781596 15.11102504 -10.2734375 10.515625 C-10.49951147 7.21616709 -9.92156806 4.97474884 -8.23046875 2.15625 C-5.45770729 0.49259313 -3.25043189 -0.14473166 0 0 Z " fill="#AF00FE" transform="translate(221.73046875,395.34375)"/>
</svg>
